<svg width="1920" height="419" viewBox="0 0 1920 419" fill="none" xmlns="http://www.w3.org/2000/svg">
<rect width="1920" height="419" fill="#122A24"/>
<mask id="mask0_3401_28672" style="mask-type:alpha" maskUnits="userSpaceOnUse" x="0" y="0" width="1920" height="419">
<rect width="1920" height="419" fill="#D9D9D9"/>
</mask>
<g mask="url(#mask0_3401_28672)">
<path d="M-233.287 -29.3945H-29.0314C-13.4973 176.201 49.7759 330.802 141.677 451.273C233.642 571.829 354.255 658.18 484.315 727.259C595.891 786.521 714.444 833.083 827.842 877.621C846.623 884.997 865.262 892.318 883.704 899.631C1013.53 951.113 1133.6 1002.24 1224.82 1069.94C1433.02 1224.38 1554.09 1485.84 1660.66 1760.21C1679.73 1809.3 1698.33 1858.8 1716.88 1908.17C1801.87 2134.34 1885.85 2357.82 2008.83 2526.56H1600.55C1555.35 2433.77 1524.08 2327.91 1495.59 2215.12C1485.59 2175.54 1475.93 2135.09 1466.14 2094.06C1448 2018.1 1429.38 1940.14 1407.22 1861.88C1338.97 1620.8 1237.12 1376.8 1012.12 1179.5C926.583 1104.54 808.485 1035.91 682.089 971.572C605.122 932.392 525.05 894.786 447.366 858.303C397.484 834.876 348.587 811.912 302.129 789.291C52.8416 667.684 -121.752 500.965 -233.287 249.242V-29.3945Z" stroke="#1D4138"/>
<path d="M431.495 -29.3945C435.436 204.514 493.083 382.428 662.074 489.377C786.324 568.087 927.181 594.164 1068.87 616.933C1078.29 618.448 1087.72 619.947 1097.15 621.447C1229.48 642.498 1361.62 663.52 1480.92 724.587C1721.07 847.49 1848.34 1052.34 1957.39 1276.51C1981.3 1325.65 2004.33 1375.73 2027.49 1426.07C2109.92 1605.27 2193.9 1787.87 2324.45 1943.9V2525.82C2202.48 2398.62 2112.99 2245.59 2036.38 2083C1987.41 1979.06 1943.71 1871.25 1900.16 1763.79C1875.41 1702.73 1850.7 1641.78 1825.1 1581.71C1683.82 1250.24 1515.3 945.966 1161.49 800.464C1071.14 763.306 978.458 744.394 885.656 725.458C857.342 719.68 829.016 713.901 800.742 707.599C679.772 680.641 559.672 644.132 445.132 557.468C288.35 438.744 184.178 226.834 202.237 -29.3945H431.495Z" stroke="#1D4138"/>
<mask id="path-5-inside-1_3401_28672" fill="white">
<path d="M871.269 -29.9027C906.485 635.61 1475.74 349.187 1913.94 678.698C2097.89 816.938 2205.33 945.649 2324.93 1146.31V1499.16C2165.56 1243.26 1901.09 733.11 1435.69 614.757C1086.43 525.957 662.183 515.6 662.183 7.66097V-29.9027C709.137 -29.7646 802.494 -30.179 871.131 -29.9027"/>
</mask>
<path d="M1913.94 678.698L1913.34 679.497L1913.34 679.498L1913.94 678.698ZM2324.93 1146.31H2325.93V1146.04L2325.79 1145.8L2324.93 1146.31ZM2324.93 1499.16L2324.08 1499.69L2325.93 1502.66V1499.16H2324.93ZM1435.69 614.757L1435.94 613.788H1435.94L1435.69 614.757ZM662.183 -29.9027L662.186 -30.9027L661.183 -30.9057V-29.9027H662.183ZM870.27 -29.8499C879.082 136.67 921.309 243.803 986.68 315.914C1052.04 388.012 1140.42 424.962 1241.23 451.366C1291.64 464.568 1345.19 475.142 1400.55 486.146C1455.93 497.151 1513.12 508.589 1570.86 523.523C1686.33 553.388 1803.93 597.227 1913.34 679.497L1914.54 677.899C1804.85 595.414 1686.97 551.488 1571.36 521.586C1513.56 506.636 1456.31 495.189 1400.94 484.184C1345.57 473.177 1292.08 462.615 1241.74 449.431C1141.06 423.062 1053.13 386.24 988.162 314.57C923.2 242.912 881.064 136.281 872.268 -29.9556L870.27 -29.8499ZM1913.34 679.498C2097.17 817.647 2204.53 946.253 2324.07 1146.82L2325.79 1145.8C2206.14 945.045 2098.61 816.23 1914.54 677.899L1913.34 679.498ZM2323.93 1146.31V1499.16H2325.93V1146.31H2323.93ZM2325.78 1498.63C2246.13 1370.74 2140.11 1179.13 1995.84 1004.74C1851.57 830.344 1668.93 673.039 1435.94 613.788L1435.44 615.726C1667.85 674.828 1850.15 831.774 1994.3 1006.02C2138.46 1180.27 2244.36 1371.68 2324.08 1499.69L2325.78 1498.63ZM1435.94 613.788C1392.26 602.683 1347.42 592.805 1302.39 583.032C1257.36 573.257 1212.15 563.587 1167.72 552.893C1078.86 531.503 993.175 506.032 918.423 467.497C843.683 428.968 779.894 377.392 734.781 303.796C689.668 230.199 663.183 134.504 663.183 7.66097H661.183C661.183 134.787 687.729 230.864 733.076 304.842C778.424 378.821 842.526 430.622 917.506 469.275C992.474 507.922 1078.34 533.436 1167.25 554.837C1211.71 565.538 1256.95 575.214 1301.97 584.986C1346.99 594.76 1391.81 604.631 1435.45 615.726L1435.94 613.788ZM663.183 7.66097V-29.9027H661.183V7.66097H663.183ZM662.18 -28.9028C709.17 -28.7645 802.468 -29.179 871.127 -28.9028L871.135 -30.9027C802.52 -31.1789 709.105 -30.7647 662.186 -30.9027L662.18 -28.9028Z" fill="#1D4138" mask="url(#path-5-inside-1_3401_28672)"/>
<path d="M2324.43 779.961V959.704C2294.09 926.649 2264.55 890.155 2234.63 852.863C2232.35 850.012 2230.06 847.155 2227.76 844.295C2199.79 809.406 2171.4 774 2141.64 740.245C2077.25 667.205 2006.42 601.848 1919.37 566.105C1837.05 532.332 1745.48 506.847 1653.5 481.248C1649.82 480.223 1646.13 479.197 1642.45 478.171C1546.76 451.52 1451.01 424.383 1365.08 387.301C1279.15 350.22 1203.07 303.209 1146.7 236.832C1090.43 170.566 1053.79 84.9689 1046.64 -29.3945H1208.74C1215.83 57.3739 1274.63 148.204 1355.09 226.315C1435.7 304.577 1538.12 370.145 1632.31 406.146C1681.12 424.8 1731.18 438.659 1781.21 451.551C1792.75 454.525 1804.29 457.447 1815.81 460.365C1854.24 470.098 1892.47 479.78 1929.93 491.159C2027.29 520.73 2119.39 561.738 2196.08 644.752C2196.09 644.754 2196.09 644.756 2196.09 644.759C2196.1 644.771 2196.1 644.782 2196.11 644.79C2196.14 644.825 2196.17 644.864 2196.2 644.904C2196.27 644.986 2196.36 645.098 2196.49 645.236C2196.73 645.513 2197.1 645.912 2197.57 646.422C2198.51 647.443 2199.89 648.92 2201.65 650.785C2205.16 654.516 2210.18 659.809 2216.2 666.143C2228.23 678.803 2244.28 695.623 2260.32 712.445L2260.35 712.472C2276.4 729.303 2292.46 746.134 2304.5 758.8C2310.52 765.133 2315.53 770.425 2319.04 774.154C2320.8 776.019 2322.18 777.492 2323.12 778.51C2323.33 778.741 2323.52 778.948 2323.69 779.13C2323.89 779.35 2324.05 779.534 2324.18 779.682C2324.24 779.739 2324.28 779.791 2324.32 779.836C2324.36 779.885 2324.4 779.926 2324.43 779.961Z" stroke="#1D4138"/>
<path d="M2324.33 631.907C2318.16 626.219 2312.14 620.041 2306.52 614.28C2306.03 613.781 2305.55 613.285 2305.07 612.793C2298.77 606.343 2293.02 600.518 2288.23 596.697L2288.23 596.696C2280.68 590.708 2272.7 584.061 2264.41 577.153C2239.66 556.542 2212.13 533.605 2184.99 518.897L2184.99 518.896C2112.97 480.103 2031.96 450.418 1949.84 421.706C1939.54 418.103 1929.22 414.516 1918.89 410.929C1846.93 385.917 1774.86 360.869 1707.9 330.338C1554.96 260.598 1428.8 162.295 1391.69 -29.3945H1391.76H1391.85H1391.93H1392.02H1392.11H1392.21H1392.3H1392.4H1392.5H1392.6H1392.7H1392.81H1392.91H1393.02H1393.13H1393.24H1393.36H1393.47H1393.59H1393.71H1393.83H1393.96H1394.08H1394.21H1394.34H1394.47H1394.6H1394.74H1394.87H1395.01H1395.15H1395.3H1395.44H1395.58H1395.73H1395.88H1396.03H1396.18H1396.34H1396.49H1396.65H1396.81H1396.97H1397.14H1397.3H1397.47H1397.63H1397.8H1397.98H1398.15H1398.32H1398.5H1398.68H1398.86H1399.04H1399.22H1399.41H1399.59H1399.78H1399.97H1400.16H1400.36H1400.55H1400.75H1400.95H1401.15H1401.35H1401.55H1401.75H1401.96H1402.17H1402.37H1402.59H1402.8H1403.01H1403.23H1403.44H1403.66H1403.88H1404.1H1404.32H1404.55H1404.77H1405H1405.23H1405.46H1405.69H1405.92H1406.16H1406.39H1406.63H1406.87H1407.11H1407.35H1407.59H1407.84H1408.09H1408.33H1408.58H1408.83H1409.08H1409.34H1409.59H1409.85H1410.1H1410.36H1410.62H1410.88H1411.14H1411.41H1411.67H1411.94H1412.21H1412.48H1412.75H1413.02H1413.29H1413.56H1413.84H1414.12H1414.39H1414.67H1414.95H1415.24H1415.52H1415.8H1416.09H1416.37H1416.66H1416.95H1417.24H1417.53H1417.83H1418.12H1418.41H1418.71H1419.01H1419.31H1419.61H1419.91H1420.21H1420.51H1420.82H1421.12H1421.43H1421.74H1422.05H1422.36H1422.67H1422.98H1423.29H1423.61H1423.92H1424.24H1424.55H1424.87H1425.19H1425.51H1425.84H1426.16H1426.48H1426.81H1427.13H1427.46H1427.79H1428.12H1428.45H1428.78H1429.11H1429.44H1429.77H1430.11H1430.44H1430.78H1431.12H1431.46H1431.8H1432.14H1432.48H1432.82H1433.16H1433.51H1433.85H1434.2H1434.54H1434.89H1435.24H1435.59H1435.94H1436.29H1436.64H1436.99H1437.35H1437.7H1438.06H1438.41H1438.77H1439.13H1439.49H1439.85H1440.21H1440.57H1440.93H1441.29H1441.65H1442.02H1442.38H1442.75H1443.11H1443.48H1443.85H1444.22H1444.58H1444.95H1445.32H1445.7H1446.07H1446.44H1446.81H1447.19H1447.56H1447.94H1448.31H1448.69H1449.07H1449.44H1449.82H1450.2H1450.58H1450.96H1451.34H1451.72H1452.11H1452.49H1452.87H1453.26H1453.64H1454.02H1454.41H1454.8H1455.18H1455.57H1455.96H1456.35H1456.74H1457.12H1457.51H1457.91H1458.3H1458.69H1459.08H1459.47H1459.86H1460.26H1460.65H1461.05H1461.44H1461.84H1462.23H1462.63H1463.02H1463.42H1463.82H1464.22H1464.61H1465.01H1465.41H1465.81H1466.21H1466.61H1467.01H1467.41H1467.81H1468.21H1468.62H1469.02H1469.42H1469.82H1470.23H1470.63H1471.04H1471.44H1471.84H1472.25H1472.65H1473.06H1473.46H1473.87H1474.28H1474.68H1475.09H1475.5H1475.9H1476.31H1476.72H1477.13H1477.53H1477.94H1478.35H1478.76H1479.17H1479.58H1479.99H1480.4H1480.81H1481.22H1481.63H1482.04H1482.45H1482.86H1483.27H1483.68H1484.09H1484.5H1484.91H1485.32H1485.73H1486.14H1486.56H1486.97H1487.38H1487.79H1488.2H1488.61H1489.03H1489.44H1489.85H1490.26H1490.67H1491.08H1491.5H1491.91H1492.32H1492.73H1493.14H1493.56H1493.97H1494.38H1494.79H1495.2H1495.62H1496.03H1496.44H1496.85H1497.26H1497.67H1498.09H1498.5H1498.91H1499.32H1499.73H1500.14H1500.55H1500.96H1501.37H1501.78H1502.19H1502.6H1503.01H1503.42H1503.83H1504.24H1504.65H1505.06H1505.47H1505.88H1506.29H1506.7H1507.1H1507.51H1507.92H1508.33H1508.73H1509.14H1509.55H1509.95H1510.36H1510.77H1511.17H1511.58H1511.98H1512.39H1512.79H1513.2H1513.6H1514H1514.41H1514.81H1515.21H1515.62H1516.02H1516.42H1516.82H1517.22H1517.62H1518.02H1518.42H1518.82H1519.22H1519.62H1520.02H1520.42H1520.81H1521.21H1521.61H1522H1522.4H1522.79H1523.19H1523.58H1523.98H1524.37H1524.76H1525.16H1525.55H1525.94H1526.33H1526.72H1527.11H1527.5H1527.89H1528.28H1528.67H1529.05H1529.44H1529.83H1530.21H1530.6H1530.98H1531.37H1531.75H1532.13H1532.51H1532.9H1533.28H1533.66H1534.04H1534.42H1534.79H1535.17H1535.55H1535.93H1536.3H1536.68H1537.05H1537.43H1537.8H1538.17H1538.54H1538.92H1539.29H1539.66H1540.03H1540.39H1540.76H1541.13H1541.49H1541.86H1542.23H1542.59H1542.95H1543.31H1543.68H1544.04H1544.4H1544.76H1545.12H1545.47H1545.83H1546.19H1546.54H1546.9H1547.25H1547.6H1547.95H1548.31H1548.66H1549.01H1549.35H1549.7H1550.05H1550.39H1550.74H1551.08H1551.43H1551.77H1552.11H1552.45H1552.79H1553.13H1553.47H1553.8H1554.14H1554.48H1554.81H1555.14H1555.47H1555.81H1556.14H1556.46H1556.79H1557.12H1557.3C1566.75 118.481 1635.2 208.053 1732.64 271.707C1814.35 325.085 1916.47 360.25 2021.23 396.326C2041.47 403.295 2061.81 410.299 2082.11 417.475C2085.43 418.649 2088.9 419.869 2092.49 421.135C2125.25 432.67 2168.77 447.99 2210.39 467.191C2256.52 488.475 2300.25 514.49 2324.43 545.334C2324.42 556.936 2324.14 567.512 2323.87 577.611C2323.37 596.18 2322.92 613.139 2324.33 631.907Z" stroke="#1D4138"/>
<path d="M2324.43 368.812V463.731C2207.76 434.431 2052.61 382.563 1926.02 302.319C1799.34 222.021 1701.37 113.384 1699.01 -29.3945H1813.24C1831.35 106.116 1917.65 198.489 2020.16 260.564C2122.6 322.6 2241.28 354.41 2324.43 368.812Z" stroke="#1D4138"/>
</g>
</svg>
