<svg width="33" height="33" viewBox="0 0 33 33" fill="none" xmlns="http://www.w3.org/2000/svg">
<g clip-path="url(#clip0_3523_1375)">
<path d="M11.93 0.209961V23.63L6.46 19.99L0 24.29V33H32.79V0.209961H11.93ZM4.97 32.01V28.53C4.97 27.71 5.64 27.04 6.46 27.04C7.28 27.04 7.95 27.71 7.95 28.53V32.01H4.97ZM11.93 32.01H8.95V28.53C8.95 27.16 7.84 26.05 6.47 26.05C5.1 26.05 3.99 27.16 3.99 28.53V32.01H0.99V24.82L6.46 21.18L11.93 24.82V32.01ZM20.21 32.01V27.04H21.87V32.01H20.21ZM22.86 32.01V27.04H24.52V32.01H22.86ZM31.8 32.01H25.51V26.05H19.22V32.01H12.93V1.19996H31.81V32.01H31.8Z" fill="#0DB04A"/>
<path d="M28.82 24.5501V20.0801H15.9V25.0501H28.82V24.5501ZM27.83 24.0501H24.85V21.0701H27.83V24.0501ZM23.85 24.0501H20.87V21.0701H23.85V24.0501ZM16.89 21.0701H19.87V24.0501H16.89V21.0701Z" fill="#0DB04A"/>
<path d="M28.82 16.5999V12.1299H15.9V17.0999H28.82V16.5999ZM27.83 16.0999H24.85V13.1199H27.83V16.0999ZM23.85 16.0999H20.87V13.1199H23.85V16.0999ZM16.89 13.1199H19.87V16.0999H16.89V13.1199Z" fill="#0DB04A"/>
<path d="M28.82 8.64993V4.17993H15.9V9.14993H28.82V8.64993ZM27.83 8.14993H24.85V5.16993H27.83V8.14993ZM23.85 8.14993H20.87V5.16993H23.85V8.14993ZM16.89 5.16993H19.87V8.14993H16.89V5.16993Z" fill="#0DB04A"/>
<path d="M5.96 1.9V16.6H6.96V1.9L10.08 5.03L10.79 4.33L6.46 0L2.13 4.33L2.84 5.03L5.96 1.9Z" fill="#0DB04A"/>
</g>
<defs>
<clipPath id="clip0_3523_1375">
<rect width="32.79" height="33" fill="white"/>
</clipPath>
</defs>
</svg>
