<svg width="22" height="35" viewBox="0 0 22 35" fill="none" xmlns="http://www.w3.org/2000/svg">
<path d="M16.4325 1.98643C16.4856 1.71548 16.3091 1.45276 16.0381 1.3996L14.0492 1.00936C13.932 0.986349 13.8104 1.00609 13.7064 1.06502L12.4924 1.75313L10.7636 1.40034C10.7255 1.39258 10.6868 1.38928 10.648 1.39049L3.15135 1.62462C2.89163 1.63274 2.68141 1.83844 2.66766 2.09793L2.51466 4.98574C2.51276 5.02154 2.51472 5.05743 2.5205 5.09281L3.13223 8.83743L3.13251 8.83914L4.2563 15.8716L2.48047 19.8728C2.46565 19.9062 2.45454 19.9411 2.44732 19.9769L1.29988 25.6745C1.27989 25.7737 1.29051 25.8767 1.33032 25.9698L3.1182 30.1501L2.97438 32.0575C2.95758 32.2804 3.09075 32.4874 3.30057 32.5644L7.12539 33.9693C7.2385 34.0109 7.3628 34.0102 7.47544 33.9674L11.3767 32.4845C11.4155 32.4697 11.4523 32.4502 11.4862 32.4264L13.8908 30.7397L20.6504 27.8725C20.7809 27.8171 20.8817 27.7091 20.9279 27.5751C20.974 27.4411 20.9612 27.2938 20.8925 27.1699L19.9177 25.4102L18.8002 22.2937L18.4392 19.9368L19.4132 15.5798C19.4404 15.4582 19.4212 15.3308 19.3593 15.2226L18.3389 13.4379L17.8953 9.66582V6.02682C17.8953 5.92618 17.8649 5.82788 17.8082 5.74478L16.1668 3.34201L16.4325 1.98643Z" stroke="#0DB04A" stroke-linecap="round" stroke-linejoin="round"/>
</svg>
