<svg width="24" height="34" viewBox="0 0 24 34" fill="none" xmlns="http://www.w3.org/2000/svg">
<path d="M23.0294 6.27593C23.1317 6.12251 23.1413 5.92521 23.0543 5.7626C22.9673 5.59999 22.7978 5.49848 22.6134 5.49848H20.9438L19.9848 4.56254C19.8293 4.41076 19.5936 4.37681 19.4015 4.47854L16.9039 5.80167C16.8213 5.84544 16.7526 5.91152 16.7056 5.99238L16.1098 7.01832L14.7093 6.79271L14.1608 6.49134C14.0638 6.43805 13.9519 6.41845 13.8425 6.43561L13.2707 6.52535L12.6129 6.48807L9.2768 3.93523C9.18956 3.86848 9.08278 3.83231 8.97294 3.83231H7.27663L6.63403 3.10767L6.59097 1.52545C6.58548 1.32398 6.45957 1.1455 6.27161 1.07276L4.87873 0.533702C4.68392 0.458307 4.46277 0.51197 4.32417 0.668266L2.49907 2.72647L2.49907 2.72646L2.49725 2.72853L0.864224 4.5907C0.722025 4.75285 0.699823 4.98791 0.809148 5.17382L2.06498 7.30939L2.38429 8.79856C2.3885 8.81819 2.39388 8.83754 2.40042 8.85653L3.58563 12.2983L2.672 14.3846L1.3499 16.408C1.34661 16.413 1.34342 16.4181 1.34031 16.4232L0.571847 17.6974C0.524842 17.7753 0.5 17.8646 0.5 17.9556V18.1026C0.5 18.1867 0.521216 18.2695 0.561683 18.3432L1.16164 19.4363L0.982029 21.5894C0.966747 21.7726 1.05323 21.9494 1.20722 22.0498L10.8475 28.3352L10.9721 29.9033C10.983 30.0403 11.0498 30.1668 11.1567 30.253L15.0471 33.3893C15.2408 33.5454 15.5197 33.5354 15.7018 33.3658L16.8064 32.3368C16.8763 32.2716 16.9261 32.1878 16.9499 32.0952L17.455 30.1277L18.313 28.9297C18.3571 28.8681 18.3866 28.7973 18.3994 28.7226L18.725 26.8124L19.4386 26.68C19.5916 26.6516 19.7226 26.5536 19.7931 26.4149L20.4059 25.2092L22.2173 24.0078C22.4414 23.8592 22.5078 23.5601 22.3678 23.3307L20.8549 20.8514L20.7612 9.67635L23.0294 6.27593Z" stroke="#0DB04A" stroke-linecap="round" stroke-linejoin="round"/>
</svg>
