<svg width="101" height="47" viewBox="0 0 101 47" fill="none" xmlns="http://www.w3.org/2000/svg">
<g clip-path="url(#clip0_3403_1594)">
<path d="M3.76452 0C4.89864 15.0853 20.0523 15.1866 26.7457 20.1534C34.3832 25.819 35.6262 39.3347 41.1297 46.8711H32.8036C29.4822 40.0588 30.2619 29.4061 22.0168 22.1761C18.8828 19.4294 14.1792 17.146 9.82245 15.0246C5.25052 12.7943 2.04815 9.73622 0.00268555 5.11873V0H3.76452Z" fill="#0DB04A"/>
<path d="M12.2069 0C12.2777 4.29092 13.3334 7.55152 16.4294 9.51092C20.9811 12.3943 26.7504 11.4222 31.4388 13.8221C40.2485 18.3307 40.775 28.8517 46.9064 36.1779V46.8711C37.9271 37.5272 38.5397 20.561 25.5758 15.2296C21.2545 13.4525 16.6446 13.9537 12.4423 10.7741C9.56395 8.59451 7.65265 4.70356 7.98682 0H12.2069Z" fill="#0DB04A"/>
<path d="M20.2597 1.26858e-05C20.9053 12.1994 31.3402 6.94903 39.3727 12.9892C42.7447 15.5233 44.7142 17.8827 46.9065 21.561V28.029C43.9851 23.3381 39.1373 13.9867 30.606 11.8171C24.2038 10.1894 16.427 9.99951 16.427 0.688586V1.26858e-05C17.2877 0.0025442 18.999 -0.00505035 20.2572 1.26858e-05" fill="#0DB04A"/>
<path d="M23.4646 0H26.4543C26.7075 3.17959 30.763 6.66549 34.2134 7.98441C37.7905 9.35143 41.7371 9.31346 44.5522 12.3614C44.5522 12.3741 46.9065 14.8296 46.9065 14.8423V18.1636C44.6585 15.7207 42.656 12.2424 39.4689 10.9336C33.1932 8.35907 23.9836 8.41224 23.4646 0Z" fill="#0DB04A"/>
<path d="M32.8439 0C33.1856 5.42504 37.8588 6.56676 42.4586 8.19199C43.6889 8.62742 46.0179 9.40459 46.9065 10.5412C46.9065 11.1564 46.8634 11.6121 46.9065 12.1538C46.6482 11.9184 46.4027 11.6323 46.228 11.4931C45.6761 11.0551 45.0002 10.4273 44.337 10.0679C39.0588 7.22495 31.1452 7.05028 29.7883 0C29.9959 0 31.8287 0 32.8439 0Z" fill="#0DB04A"/>
<path d="M35.4236 0H37.5349C38.1931 4.96937 43.8586 6.77434 46.9066 7.3009V9.06031C42.6258 7.98694 35.5021 5.2529 35.4236 0Z" fill="#0DB04A"/>
<path d="M40.0156 0H41.8915C42.0282 1.01008 42.2408 1.6708 42.694 2.329C43.3623 3.29857 45.1369 4.5061 46.9064 4.76179C46.9089 5.21999 46.9064 5.42251 46.9064 5.84781C43.7496 5.27062 40.4283 3.35426 40.0182 0" fill="#0DB04A"/>
<path d="M43.3977 0H46.9064V3.26819C45.0078 2.89859 43.8154 1.85054 43.3977 0Z" fill="#0DB04A"/>
<path d="M0.0023988 11.3438C4.10599 17.546 11.9056 20.3408 16.8978 25.5456C23.8949 32.8439 23.1506 41.6764 25.3404 46.8686C21.4899 46.8584 20.5077 46.8584 17.8369 46.8686C13.341 36.988 16.8876 30.4998 0.0023988 16.3612C0.0023988 14.7967 -0.00519576 11.4222 0.0023988 11.3438Z" fill="#0DB04A"/>
<path d="M0.00244141 20.7787C2.19727 23.852 4.97181 27.5531 5.87556 32.3478C6.79704 37.2412 6.33377 42.608 8.45518 46.8711H0.00244141V20.7787Z" fill="#0DB04A"/>
<path d="M101 46.4458H54.0732V46.8711H101V46.4458Z" fill="#0DB04A"/>
<path d="M68.3965 40.3498V24.0798H75.2291V26.3885H70.9559V31.0035H74.6342V33.3122H70.9559V38.0411H75.2291V40.3498H68.3965Z" fill="#646363"/>
<path d="M85.0084 31.2668L83.0896 30.4896C81.9478 30.0314 81.7403 29.6213 81.7403 28.2948C81.7403 27.5859 81.877 27.0391 82.1732 26.6948C82.4238 26.4214 82.7453 26.2366 83.2693 26.2366C83.7933 26.2366 84.1832 26.4189 84.411 26.7176C84.7376 27.1303 84.7933 27.6695 84.7983 28.3479H84.7958V29.0137H87.3552V28.4542H87.3577C87.3577 26.8999 87.0615 25.7354 86.216 24.9127C85.5527 24.2722 84.5933 23.9304 83.2921 23.9304C82.1276 23.9304 81.2137 24.295 80.5049 24.9127C79.6138 25.7126 79.1784 26.8999 79.1784 28.3631C79.1784 30.8769 79.7961 31.768 81.4415 32.454L83.3832 33.254C84.6388 33.7578 84.9148 34.1907 84.9148 35.9273C84.9148 36.7956 84.8236 37.3449 84.4819 37.7323C84.2313 38.0284 83.8414 38.1905 83.249 38.1905C82.6567 38.1905 82.2896 38.0082 82.0618 37.7576C81.6972 37.3475 81.6036 36.7981 81.6036 35.9298V34.8109H79.0442V36.0336C79.0543 37.6842 79.3328 38.6664 80.0948 39.4258C80.7808 40.1119 81.8314 40.4992 83.249 40.4992C84.6667 40.4992 85.7628 40.0663 86.4261 39.4258C87.2488 38.6259 87.4767 37.507 87.4767 35.8387C87.4767 33.0971 86.9501 32.0693 85.0084 31.2693V31.2668Z" fill="#646363"/>
<path d="M60.5641 24.0798H58.073L54.0732 40.3498H56.7693L57.4098 37.1272H60.4603C60.3033 36.1247 59.7312 35.1324 59.3413 34.8185H57.9136L59.3084 28.0087L60.7033 34.8185L61.1843 37.1272L61.8475 40.3498H64.5208L60.5666 24.0798H60.5641Z" fill="#646363"/>
<path d="M97.0356 24.0798H94.5446L90.5448 40.3498H93.2409L93.8813 37.1272H96.9318C96.7749 36.1247 96.2027 35.1324 95.8129 34.8185H94.3851L95.78 28.0087L97.1748 34.8185L97.6558 37.1272L98.3191 40.3498H100.992L97.0381 24.0798H97.0356Z" fill="#646363"/>
</g>
<defs>
<clipPath id="clip0_3403_1594">
<rect width="101" height="46.8711" fill="white"/>
</clipPath>
</defs>
</svg>
