<svg width="32" height="34" viewBox="0 0 32 34" fill="none" xmlns="http://www.w3.org/2000/svg">
<path d="M29.0989 2.11733C29.0187 1.93671 28.8396 1.8203 28.642 1.8203H27.908L26.1393 1.35062C26.0842 1.33599 26.0271 1.33089 25.9702 1.33554L24.4881 1.45681L23.6164 0.664689C23.5278 0.584165 23.4132 0.538116 23.2935 0.534915L21.9946 0.500179C21.7902 0.494713 21.6031 0.614234 21.5222 0.801971L20.9312 2.17203L19.7665 4.33949L18.5198 5.19602L16.7413 6.19246C16.6854 6.22382 16.6359 6.26567 16.5958 6.31572L15.3968 7.80976C15.3521 7.86558 15.3198 7.93036 15.3022 7.99973L15.0093 9.15396L14.2865 11.0735C14.2567 11.1527 14.2474 11.2381 14.2596 11.3218L14.6271 13.8457L13.255 15.4903L12.3887 16.0391C12.3546 16.0607 12.3232 16.0863 12.2953 16.1155L10.9493 17.5197L9.42155 17.7385C9.32345 17.7525 9.23174 17.7954 9.15806 17.8617L8.19227 18.7303C8.18311 18.7385 8.17425 18.7471 8.16572 18.756L8.1324 18.7908C8.10048 18.8241 8.07331 18.8616 8.05168 18.9024L6.91264 21.048L5.75375 21.8116C5.68214 21.8588 5.62388 21.9236 5.58455 21.9998L4.88516 23.3548C4.8528 23.4175 4.83407 23.4864 4.83022 23.5568L4.76827 24.6876L4.33538 25.732L3.85658 25.9949C3.79405 26.0293 3.7396 26.0766 3.69687 26.1337L2.63117 27.5583C2.60722 27.5903 2.5872 27.625 2.57153 27.6618L1.90546 29.2253C1.87046 29.3075 1.8581 29.3975 1.86968 29.4861L1.94876 30.0912L1.43976 31.0414L0.7861 31.5684C0.681328 31.6529 0.615028 31.776 0.602188 31.91L0.502281 32.9523C0.488837 33.0926 0.535201 33.232 0.629964 33.3363C0.724728 33.4405 0.859094 33.5 1 33.5H1.03332C1.04027 33.5 1.04722 33.4999 1.05416 33.4996L5.21711 33.3258C5.43145 33.3169 5.61619 33.1722 5.67626 32.9663L5.88195 32.2612L6.62039 31.3303C6.66808 31.2702 6.7013 31.1999 6.71746 31.1248L7.34982 28.189L9.8625 25.8994C9.92725 25.8404 9.97536 25.7655 10.002 25.682L10.8201 23.1216L11.1636 23.0221C11.3168 22.9777 11.4396 22.8628 11.4942 22.7129L12.0262 21.2522L13.1158 21.0793L13.6427 21.3267C13.7092 21.3579 13.7818 21.3741 13.8552 21.3741H14.6878C14.8084 21.3741 14.9249 21.3305 15.0158 21.2514L15.4872 20.8415L16.4502 20.7825C16.7194 20.7659 16.927 20.5389 16.9194 20.2693L16.8992 19.5544C17.0668 19.4753 17.1835 19.3058 17.186 19.1084L17.2156 16.7559L19.8578 15.2692L21.5766 14.9372C21.6068 14.9313 21.6364 14.9227 21.665 14.9114L23.1637 14.3208C23.2628 14.2817 23.3469 14.212 23.4036 14.1218L24.0174 13.1461L25.9999 12.3382C26.1781 12.2655 26.2988 12.0971 26.3103 11.905L26.3872 10.6213L27.0425 10.489C27.1355 10.4702 27.2213 10.4254 27.2897 10.3596L28.0098 9.66849L30.2204 9.31119C30.3963 9.28276 30.5437 9.16292 30.6075 8.99659L30.9405 8.12797C31.0098 7.94723 30.9686 7.74273 30.8347 7.60299L30.4572 7.20921L29.8698 5.01608L29.7734 3.70808C29.7692 3.65069 29.7551 3.59446 29.7317 3.54187L29.0989 2.11733Z" stroke="#0DB04A" stroke-linecap="round" stroke-linejoin="round"/>
</svg>
