<svg width="32" height="32" viewBox="0 0 32 32" fill="none" xmlns="http://www.w3.org/2000/svg">
<g clip-path="url(#clip0_3523_331)">
<path d="M22.2 9.13006H23.16C23.16 7.32006 25.48 5.77006 27.38 5.77006H27.86V4.81006H27.38C25.7 4.81006 23.84 5.74006 22.87 7.13006C22.37 5.65006 21.26 4.81006 19.7 4.81006H19.22V5.77006H19.7C21.88 5.77006 22.21 7.88006 22.21 9.13006H22.2Z" fill="#0DB04A"/>
<path d="M31.0087 23.0106L26.7371 31.552L27.5957 31.9814L31.8673 23.44L31.0087 23.0106Z" fill="#0DB04A"/>
<path d="M27.51 15.48H16.33V5.02002L8.17 0.0200195L0 5.02002V16.44H15.08L14.02 18.55H0V19.51H13.54L12.48 21.63H0V22.59H12L10.95 24.7H0V25.66H10.47L9.41 27.78H0V28.74H8.93L7.87 30.85H0V31.81H8.46L10 28.74L10.18 28.37L11.54 25.66L11.72 25.29L13.07 22.59L13.26 22.22L14.61 19.51L14.79 19.16L16.15 16.44H18.92L11.36 31.55L12.22 31.98L19.99 16.44H22.76L15.21 31.55L16.07 31.98L23.83 16.44H26.61L19.05 31.55L19.91 31.98L27.67 16.44H30.45L22.89 31.55L23.75 31.98L32 15.48H27.51ZM6.08 15.48V10.84C6.08 9.69002 7.02 8.75002 8.17 8.75002C9.32 8.75002 10.25 9.69002 10.25 10.84V15.48H6.08ZM11.21 15.48V10.84C11.21 9.16002 9.84 7.79002 8.17 7.79002C6.5 7.79002 5.12 9.16002 5.12 10.84V15.48H0.96V5.55002L8.17 1.15002L15.37 5.55002V15.48H11.21Z" fill="#0DB04A"/>
</g>
<defs>
<clipPath id="clip0_3523_331">
<rect width="32" height="31.96" fill="white" transform="translate(0 0.0200195)"/>
</clipPath>
</defs>
</svg>
