<svg width="32" height="32" viewBox="0 0 32 32" fill="none" xmlns="http://www.w3.org/2000/svg">
<g clip-path="url(#clip0_3523_906)">
<path d="M27.94 15.62V0.2H11.56V7.22L4.34 0L3.66 0.68L10.89 7.91H0V8.87H10.88L4.14 15.61H0V31.99H31.8V15.62H27.95H27.94ZM12.53 1.17H26.98V15.62H25.35C25.21 13.9 24.29 12.35 22.84 11.41C23.63 10.61 24.08 9.53 24.08 8.39C24.08 6 22.13 4.05 19.74 4.05C17.35 4.05 15.4 6 15.4 8.39C15.4 9.53 15.85 10.62 16.63 11.42C15.19 12.36 14.28 13.91 14.13 15.62H12.5V1.17H12.53ZM21.74 11.11C20.97 11.69 19.91 11.87 18.96 11.66C18.79 11.62 18.61 11.56 18.45 11.5C18.29 11.43 18.13 11.36 17.98 11.26C17.91 11.22 17.84 11.17 17.77 11.12C16.9 10.49 16.39 9.47 16.39 8.4C16.39 6.54 17.9 5.03 19.76 5.03C21.62 5.03 23.13 6.54 23.13 8.4C23.13 9.47 22.62 10.49 21.74 11.12V11.11ZM17.44 12.05C17.53 12.11 17.61 12.16 17.7 12.2C17.79 12.25 17.88 12.3 17.97 12.33C18.05 12.37 18.12 12.4 18.2 12.43C18.32 12.47 18.43 12.51 18.54 12.54C18.65 12.57 18.74 12.6 18.84 12.62C19.14 12.7 19.45 12.73 19.76 12.73C20.07 12.73 20.38 12.7 20.68 12.62C20.78 12.6 20.87 12.57 20.98 12.54C21.37 12.43 21.74 12.27 22.08 12.05C23.39 12.8 24.25 14.12 24.4 15.62H15.13C15.28 14.13 16.14 12.81 17.45 12.05H17.44ZM11.56 9.55V15.61H5.5L11.56 9.55ZM3.56 31.04C3.71 29.55 4.57 28.23 5.88 27.47C5.97 27.53 6.05 27.58 6.14 27.62C6.23 27.67 6.32 27.72 6.41 27.75C6.49 27.79 6.56 27.82 6.64 27.85C6.76 27.89 6.87 27.93 6.98 27.96C7.09 27.99 7.18 28.02 7.28 28.04C7.58 28.12 7.89 28.15 8.2 28.15C8.51 28.15 8.82 28.12 9.12 28.04C9.22 28.02 9.31 27.99 9.42 27.96C9.81 27.85 10.18 27.69 10.52 27.47C11.83 28.22 12.69 29.54 12.84 31.04H3.56ZM10.18 26.53C9.41 27.11 8.35 27.29 7.4 27.08C7.23 27.04 7.05 26.98 6.89 26.92C6.73 26.85 6.56 26.78 6.42 26.68C6.35 26.64 6.28 26.59 6.21 26.54C5.34 25.91 4.83 24.9 4.83 23.82C4.83 21.96 6.34 20.45 8.2 20.45C10.06 20.45 11.57 21.96 11.57 23.82C11.57 24.9 11.06 25.91 10.18 26.54V26.53ZM15.42 31.04H13.79C13.65 29.32 12.73 27.77 11.28 26.83C12.07 26.03 12.52 24.95 12.52 23.81C12.52 21.42 10.57 19.47 8.18 19.47C5.79 19.47 3.84 21.42 3.84 23.81C3.84 24.95 4.29 26.04 5.07 26.84C3.63 27.78 2.72 29.33 2.57 31.04H0.96V16.59H15.41V31.04H15.42ZM18.98 31.04C19.13 29.55 19.99 28.23 21.3 27.47C21.39 27.53 21.47 27.58 21.56 27.62C21.65 27.67 21.74 27.72 21.83 27.75C21.91 27.79 21.98 27.82 22.06 27.85C22.18 27.89 22.29 27.93 22.4 27.96C22.51 27.99 22.6 28.02 22.7 28.04C23 28.12 23.31 28.15 23.62 28.15C23.93 28.15 24.24 28.12 24.54 28.04C24.64 28.02 24.73 27.99 24.84 27.96C25.23 27.85 25.6 27.69 25.94 27.47C27.25 28.22 28.11 29.54 28.26 31.04H18.99H18.98ZM25.6 26.53C24.83 27.11 23.77 27.29 22.82 27.08C22.65 27.04 22.47 26.98 22.31 26.92C22.15 26.85 21.98 26.78 21.84 26.68C21.77 26.64 21.7 26.59 21.63 26.54C20.76 25.91 20.25 24.9 20.25 23.82C20.25 21.96 21.76 20.45 23.62 20.45C25.48 20.45 26.99 21.96 26.99 23.82C26.99 24.9 26.48 25.91 25.6 26.54V26.53ZM30.84 31.04H29.21C29.07 29.32 28.15 27.77 26.7 26.83C27.49 26.03 27.94 24.95 27.94 23.81C27.94 21.42 25.99 19.47 23.6 19.47C21.21 19.47 19.26 21.42 19.26 23.81C19.26 24.95 19.71 26.04 20.49 26.84C19.05 27.78 18.14 29.33 17.99 31.04H16.36V16.59H30.81V31.04H30.84Z" fill="#0DB04A"/>
</g>
<defs>
<clipPath id="clip0_3523_906">
<rect width="31.8" height="32" fill="white"/>
</clipPath>
</defs>
</svg>
